<?xml version="1.0" encoding="UTF-8"?><svg id="Layer_1" xmlns="http://www.w3.org/2000/svg" width="464.17" height="188.017" viewBox="0 0 464.17 188.017"><path d="M171.59,125.029c-2.397,1.199-7.192,2.397-13.336,2.397-14.235,0-24.948-8.99-24.948-25.548,0-15.808,10.713-26.521,26.372-26.521,6.293,0,10.264,1.349,11.987,2.247l-1.573,5.319c-2.473-1.198-5.994-2.098-10.189-2.098-11.837,0-19.704,7.567-19.704,20.828,0,12.362,7.118,20.304,19.404,20.304,3.971,0,8.017-.824,10.639-2.098l1.349,5.169Z" fill="#7a203a" stroke="#7a203a" stroke-miterlimit="10" stroke-width="3"/><path d="M221.341,100.905c0,17.381-10.563,26.597-23.45,26.597-13.336,0-22.701-10.339-22.701-25.623,0-16.032,9.964-26.521,23.45-26.521,13.785,0,22.701,10.563,22.701,25.548ZM182.157,101.729c0,10.788,5.844,20.453,16.108,20.453,10.339,0,16.183-9.515,16.183-20.978,0-10.039-5.245-20.528-16.108-20.528-10.789,0-16.183,9.965-16.183,21.053Z" fill="#7a203a" stroke="#7a203a" stroke-miterlimit="10" stroke-width="3"/><path d="M229.811,76.855c3.972-.599,8.691-1.049,13.861-1.049,9.364,0,16.032,2.173,20.453,6.294,4.495,4.12,7.117,9.964,7.117,18.13,0,8.241-2.547,14.984-7.268,19.63-4.72,4.72-12.512,7.267-22.326,7.267-4.645,0-8.541-.225-11.838-.599v-49.673ZM236.33,121.508c1.648.3,4.046.375,6.593.375,13.936,0,21.503-7.792,21.503-21.428.074-11.912-6.668-19.479-20.454-19.479-3.371,0-5.918.3-7.642.674v39.857Z" fill="#7a203a" stroke="#7a203a" stroke-miterlimit="10" stroke-width="3"/><path d="M305.859,103.003h-19.629v18.206h21.877v5.469h-28.395v-50.496h27.271v5.469h-20.753v15.958h19.629v5.395Z" fill="#7a203a" stroke="#7a203a" stroke-miterlimit="10" stroke-width="3"/><path d="M332.46,76.855c3.296-.674,8.017-1.049,12.512-1.049,6.968,0,11.463,1.273,14.609,4.121,2.547,2.247,3.971,5.693,3.971,9.59,0,6.667-4.195,11.088-9.515,12.886v.225c3.896,1.349,6.218,4.945,7.417,10.189,1.648,7.043,2.847,11.912,3.896,13.86h-6.743c-.823-1.424-1.947-5.769-3.371-12.062-1.498-6.968-4.195-9.59-10.114-9.814h-6.144v21.877h-6.518v-49.822ZM338.977,99.856h6.668c6.968,0,11.388-3.821,11.388-9.59,0-6.519-4.72-9.365-11.612-9.44-3.146,0-5.395.3-6.443.6v18.431Z" fill="#fff" stroke="#fff" stroke-miterlimit="10" stroke-width="3"/><path d="M398.917,103.003h-19.629v18.206h21.877v5.469h-28.395v-50.496h27.271v5.469h-20.753v15.958h19.629v5.395Z" fill="#fff" stroke="#fff" stroke-miterlimit="10" stroke-width="3"/><path d="M409.633,76.855c3.971-.599,8.69-1.049,13.86-1.049,9.364,0,16.032,2.173,20.453,6.294,4.495,4.12,7.117,9.964,7.117,18.13,0,8.241-2.547,14.984-7.268,19.63-4.72,4.72-12.512,7.267-22.326,7.267-4.645,0-8.541-.225-11.837-.599v-49.673ZM416.151,121.508c1.648.3,4.046.375,6.593.375,13.936,0,21.503-7.792,21.503-21.428.074-11.912-6.668-19.479-20.454-19.479-3.371,0-5.918.3-7.642.674v39.857Z" fill="#fff" stroke="#fff" stroke-miterlimit="10" stroke-width="3"/><polygon points="82.123 164.554 83.955 158.677 85.449 153.883 88.911 142.775 89.101 142.167 92.373 131.666 94.246 125.659 95.836 120.559 99.297 109.452 99.392 109.148 102.76 98.343 104.537 92.64 106.221 87.236 109.683 76.13 109.684 76.129 113.145 65.02 114.829 59.621 116.608 53.913 119.974 43.112 120.069 42.806 123.531 31.698 125.12 26.602 126.098 23.463 115.523 23.463 113.869 28.769 111.996 34.781 110.408 39.877 106.945 50.985 106.85 51.291 103.483 62.093 101.704 67.8 100.021 73.199 96.56 84.308 96.561 84.308 96.559 84.309 93.097 95.416 91.414 100.818 89.636 106.523 86.267 117.327 86.173 117.631 82.711 128.738 81.122 133.837 79.249 139.846 75.977 150.346 75.787 150.954 72.325 162.061 71.548 164.554 82.123 164.554" fill="#7a203a" stroke="#7a203a" stroke-miterlimit="10" stroke-width="2"/><polygon points="25.152 102.174 25.151 102.175 25.153 102.175 32.563 108.847 36.167 112.092 39.973 115.519 47.181 122.009 47.383 122.191 54.794 128.864 58.196 131.927 62.205 135.537 62.205 148.882 54.794 142.209 54.389 141.844 47.384 135.536 43.375 131.927 39.973 128.864 32.563 122.191 32.361 122.009 25.153 115.519 21.347 112.092 17.742 108.847 10.333 102.175 10.331 102.174 17.741 95.502 21.344 92.258 25.152 88.829 32.358 82.341 32.563 82.156 39.973 75.484 43.373 72.423 47.384 68.812 54.387 62.506 54.794 62.14 62.205 55.467 62.205 68.812 58.194 72.423 54.794 75.484 47.384 82.156 47.179 82.341 39.973 88.829 36.165 92.258 32.563 95.502 25.152 102.174" fill="#fff" stroke="#fff" stroke-miterlimit="10" stroke-width="2"/></svg>